<?xml version="1.0" encoding="UTF-8"?><svg id="Layer_1" xmlns="http://www.w3.org/2000/svg" viewBox="0 0 980.03 222.33"><defs><style>.cls-1{fill:#032e4f;}</style></defs><path class="cls-1" d="M31.36,78.4L0,156.83H5.14l9.95-25.16H52.46l9.84,25.16h5.14l-30.82-78.43h-5.25Zm-14.75,49.1l17.38-44.38h.22l16.72,44.38H16.61Zm95.95,3.41c0,13.73-7.54,23.62-20.22,23.62-15.3,0-15.95-12.74-15.95-18.46v-35.7h-4.15v34.93c0,6.92,.22,22.85,20,22.85,8.85,0,17.16-4.94,20.11-13.4h.22v12.08h4.15v-56.46h-4.15v30.54Zm24.8-48.12h-4.15v17.58h-10.38v3.62h10.38v39.44c-.55,12.74,7.98,13.95,16.28,13.4v-3.63c-7.87,.33-12.13-.77-12.13-9.78v-39.44h12.24v-3.62h-12.24v-17.58Zm43.05,16.26c-16.61,0-25.79,13.51-25.79,29.55s9.18,29.55,25.79,29.55,25.79-13.4,25.79-29.55-9.18-29.55-25.79-29.55Zm0,55.48c-13.99,0-21.64-12.41-21.64-25.93s7.65-25.92,21.64-25.92,21.64,12.41,21.64,25.92-7.65,25.93-21.64,25.93Zm70.49,0c-20.44,0-32.35-16.81-32.35-36.91s11.91-36.91,32.35-36.91c13,0,24.48,7.91,26.56,21.09h4.81c0-1.1-3.82-25.27-31.36-25.27-23.39,0-37.16,18.13-37.16,41.08s13.77,41.09,37.16,41.09c17.16,0,30.93-13.62,32.67-32.41h-4.81c-.88,14.61-12.57,28.23-27.87,28.23Zm83.38-8.13v-32.63c0-11.75-9.84-14.72-19.67-14.72-13.22,0-20.87,6.26-21.42,18.68h4.15c.55-9.78,7.21-15.05,17.27-15.05,12.79,0,15.63,8.57,15.63,11.09,0,9.12-.77,10.55-19.34,11.75-9.29,.88-20.65,3.41-20.65,16.7,0,11.86,8.2,15.93,18.8,15.93s18.25-5.82,20.87-12.52h.22v2.97c0,4.61,.98,8.24,7.54,8.24,1.2,0,2.19-.11,3.39-.44v-3.52c-1.31,.22-2.3,.33-3.06,.33-3.82,0-3.72-3.62-3.72-6.81Zm-4.15-11.1c0,2.97-2.08,19.23-20.98,19.23-9.95,0-14.75-5.38-14.75-12.3,0-8.46,5.46-11.87,15.41-13.07,8.09-1.21,17.16-.55,20.33-4.39v10.55Zm21.85-22.41h-.33v-12.52h-4.15v56.46h4.15v-30.87c.33-8.46,2.29-11.86,6.34-16.26,5.14-4.94,11.15-6.04,15.52-5.49v-4.17c-10.16-.33-19.45,5.38-21.53,12.85Zm26.66,43.94h4.81v-38.67h39.78v-4.17h-39.78v-31.42h44.15v-4.17h-48.96v78.43Zm56.39-67.12h4.15v-11.31h-4.15v11.31Zm0,67.12h4.15v-56.46h-4.15v56.46Zm41.86-57.78c-8.85,0-17.16,4.94-20.11,13.4h-.22v-12.08h-4.15v56.46h4.15v-30.54c0-13.73,7.54-23.62,20.22-23.62,15.3,0,15.95,12.74,15.95,18.46v35.7h4.15v-34.93c0-6.92-.22-22.85-20-22.85Zm73.65,47.35v-32.63c0-11.75-9.84-14.72-19.67-14.72-13.22,0-20.87,6.26-21.42,18.68h4.15c.55-9.78,7.21-15.05,17.27-15.05,12.79,0,15.63,8.57,15.63,11.09,0,9.12-.77,10.55-19.34,11.75-9.29,.88-20.66,3.41-20.66,16.7,0,11.86,8.2,15.93,18.8,15.93s18.25-5.82,20.87-12.52h.22v2.97c0,4.61,.98,8.24,7.54,8.24,1.2,0,2.19-.11,3.39-.44v-3.52c-1.31,.22-2.3,.33-3.06,.33-3.83,0-3.72-3.62-3.72-6.81Zm-4.15-11.1c0,2.97-2.08,19.23-20.98,19.23-9.95,0-14.75-5.38-14.75-12.3,0-8.46,5.46-11.87,15.41-13.07,8.09-1.21,17.16-.55,20.33-4.39v10.55Zm41.85-36.25c-8.85,0-17.16,4.94-20.11,13.4h-.22v-12.08h-4.15v56.46h4.15v-30.54c0-13.73,7.54-23.62,20.22-23.62,15.3,0,15.95,12.74,15.95,18.46v35.7h4.15v-34.93c0-6.92-.22-22.85-20-22.85Zm55.51,55.48c-14.53,0-21.64-11.21-21.64-26.47,0-12.85,7.65-25.38,21.64-25.38,10.16,0,18.14,5.16,19.02,15.16h4.15c-1.2-12.74-11.04-18.79-23.17-18.79-16.61,0-25.79,13.18-25.79,29s7.54,30.1,25.79,30.1c12.02,0,21.97-7.69,23.72-21.2h-4.15c-1.42,10.22-9.07,17.58-19.56,17.58Zm55.73-55.48c-16.94,0-25.13,15.05-24.81,30.54-.33,15.6,8.52,28.56,24.81,28.56,13.44,0,22.08-7.14,24.26-20.43h-4.15c-2.08,10.55-9.51,16.81-20.11,16.81-13.88,0-20.98-12.08-20.66-25.38h45.35c.88-16.26-7.21-30.1-24.7-30.1Zm-20.66,26.47c.87-11.2,8.2-22.85,20.66-22.85s20.22,10.99,20.55,22.85h-41.2Zm118.33-91.53c-19.7,19.73-31.93,47-31.93,77.17,0,35.22,16.67,66.57,42.51,86.42l70.67-117.81s-47.27-27-81.25-45.78Zm180.32,47.68c-12.74-45.7-54.55-79.22-104.1-79.22-13.41,0-26.23,2.45-38.07,6.96l73.65,118.92,68.53-46.66Zm-127.7,47.28v88.28c7.59,1.74,15.5,2.65,23.6,2.65,53.72,0,98.28-39.33,106.66-90.93h-130.26Z"/></svg>